<svg fill="none" height="24" viewBox="0 0 24 24" width="24" xmlns="http://www.w3.org/2000/svg"><g stroke-linecap="round" stroke-linejoin="round" stroke-width="1.5"><g stroke="#000" stroke-miterlimit="10"><path d="m8.7793 7.66992h5.42c1.2 0 2.17 1.08 2.17 2.17 0 1.19998-.97 2.16998-2.17 2.16998h-5.42z"/><path d="m8.7793 12h6.19c1.37 0 2.48.97 2.48 2.17s-1.11 2.17-2.48 2.17h-6.19z"/><path d="m12.5703 16.3301v2.17"/><path d="m9.86914 16.3301v2.17"/><path d="m12.5703 5.5v2.17"/><path d="m9.86914 5.5v2.17"/><path d="m10.8408 7.66992h-3.79002"/><path d="m10.8408 16.3301h-3.79002"/></g><path d="m4 6c-1.25 1.67-2 3.75-2 6 0 5.52 4.48 10 10 10s10-4.48 10-10-4.48-10-10-10c-1.43 0-2.8.3-4.03.85" stroke="#17191c"/></g></svg>