<svg id="Layer_1" data-name="Layer 1" xmlns="http://www.w3.org/2000/svg" viewBox="0 0 638 154.57"><defs><style>.cls-1{fill:#01a0c6;}.cls-1,.cls-2,.cls-3{fill-rule:evenodd;}.cls-2{fill:#0d1c76;}.cls-3{fill:#0c125f;}</style></defs><title>PayPal Logo Vector</title><path class="cls-1" d="M236.67,459.09h43.6c23.41,0,32.22,11.85,30.86,29.29C308.88,517.12,291.51,533,268.45,533H256.81c-3.15,0-5.28,2.09-6.14,7.76l-5,33c-.33,2.14-1.45,3.39-3.15,3.55H215.2c-2.58,0-3.49-2-2.82-6.23l16.7-105.71C229.75,461.11,232.06,459.09,236.67,459.09Z" transform="translate(-181 -422.71)"/><path class="cls-2" d="M425.94,457.14c14.71,0,28.29,8,26.43,27.87-2.2,23.58-14.91,36.71-34.9,36.76H400c-2.51,0-3.72,2.05-4.38,6.25l-3.36,21.47c-.51,3.24-2.17,4.84-4.63,4.84H371.42c-2.59,0-3.5-1.66-2.92-5.36l13.42-86c.66-4.23,2.28-5.8,5.15-5.8Zm-26.45,46.05h13.23c8.27-.31,13.77-6,14.32-16.37.34-6.38-4-10.95-10.83-10.92l-12.45.06-4.27,27.23Zm97,44.54c1.48-1.34,3-2.05,2.78-.38l-.53,4c-.28,2.08.55,3.19,2.49,3.19h14.43c2.42,0,3.61-1,4.21-4.74l8.89-55.8c.44-2.8-.23-4.18-2.36-4.18H510.56c-1.44,0-2.13.81-2.5,3l-.59,3.44c-.31,1.79-1.13,2.1-1.89.3-2.69-6.38-9.56-9.23-19.18-9-22.26.46-37.26,17.35-38.86,39-1.24,16.75,10.76,29.9,26.58,29.9,11.47,0,16.61-3.42,22.39-8.67Zm-12.07-8.57c-9.58,0-16.26-7.64-14.86-17s10.34-17,19.92-17,16.25,7.64,14.86,17-10.34,17-19.92,17ZM557,489.63H542.45c-3,0-4.24,2.21-3.28,5l18.16,53.19-17.9,25.29c-1.49,2.11-.34,4,1.77,4h16.44c2.46,0,3.65-.63,4.89-2.4l55.86-80.13c1.72-2.47.91-5-1.91-5.06H600.93c-2.67,0-3.74,1.05-5.27,3.27l-23.3,33.8L562,492.79C561.35,490.71,559.83,489.63,557,489.63Z" transform="translate(-181 -422.71)"/><path class="cls-1" d="M676.52,457.14c14.72,0,28.29,8,26.43,27.87-2.2,23.58-14.91,36.71-34.9,36.76H650.61c-2.51,0-3.72,2.05-4.38,6.25l-3.36,21.47c-.51,3.24-2.17,4.84-4.63,4.84H622c-2.59,0-3.5-1.66-2.92-5.36l13.43-86c.66-4.23,2.27-5.8,5.14-5.8Zm-26.45,46.05H663.3c8.27-.31,13.77-6,14.32-16.37.34-6.38-4-10.95-10.83-10.92l-12.45.06-4.27,27.23Zm97,44.54c1.48-1.34,3-2.05,2.78-.38l-.53,4c-.27,2.08.55,3.19,2.49,3.19h14.43c2.42,0,3.61-1,4.21-4.74l8.89-55.8c.44-2.8-.23-4.18-2.36-4.18H761.14c-1.43,0-2.13.81-2.5,3l-.59,3.44c-.31,1.79-1.13,2.1-1.89.3-2.69-6.38-9.56-9.23-19.18-9-22.25.46-37.26,17.35-38.86,39-1.24,16.75,10.76,29.9,26.58,29.9,11.48,0,16.61-3.42,22.39-8.67ZM735,539.16c-9.58,0-16.26-7.64-14.86-17s10.34-17,19.92-17,16.25,7.64,14.86,17-10.34,17-19.92,17Zm66.54,15.46H784.91a2,2,0,0,1-2-2.3l14.64-92.68a2.87,2.87,0,0,1,2.77-2.3h16.65a2,2,0,0,1,2,2.3l-14.64,92.68A2.88,2.88,0,0,1,801.56,554.62Z" transform="translate(-181 -422.71)"/><path class="cls-2" d="M209.41,422.71h43.64c12.3,0,26.87.4,36.63,9,6.51,5.75,9.93,14.91,9.14,24.73-2.67,33.33-22.61,52-49.34,52H228c-3.66,0-6.09,2.42-7.12,9l-6,38.21c-.39,2.48-1.46,3.94-3.42,4.12H184.51c-3,0-4-2.29-3.26-7.23L200.61,430C201.38,425.05,204.07,422.71,209.41,422.71Z" transform="translate(-181 -422.71)"/><path class="cls-3" d="M221.45,513.59l7.63-48.24c.67-4.24,3-6.26,7.59-6.26h43.6c7.22,0,13.05,1.13,17.62,3.21-4.38,29.66-23.57,46.14-48.69,46.14H227.68C224.84,508.44,222.73,509.88,221.45,513.59Z" transform="translate(-181 -422.71)"/></svg>