<svg id="Layer_1" data-name="Layer 1" xmlns="http://www.w3.org/2000/svg" viewBox="0 0 500 100.5"><defs><style>.cls-1{fill:#f0b90b;}</style></defs><g id="g18"><path id="path16" class="cls-1" d="M272.71,500l-11.36,11.35L250,500l11.35-11.35Zm27.54-27.56L319.7,491.9l11.35-11.35-30.8-30.8-30.8,30.8L280.8,491.9Zm38.91,16.21L327.81,500l11.35,11.35L350.5,500Zm-38.91,38.91L280.8,508.11l-11.35,11.34,30.8,30.8,30.8-30.8L319.7,508.11Zm0-16.21L311.6,500l-11.35-11.35L288.9,500ZM420,512.44v-.16c0-7.4-3.92-11.1-10.31-13.54,3.92-2.21,7.24-5.67,7.24-11.89v-.15c0-8.66-6.93-14.26-18.19-14.26H373.2v55.12h26.22c12.44,0,20.63-5,20.63-15.12Zm-15.12-23.56c0,4.09-3.38,5.83-8.73,5.83H385V483.07h12c5.12,0,7.95,2.05,7.95,5.67ZM408,510.93c0,4.09-3.23,6-8.59,6H385V504.8h14c6.23,0,9,2.29,9,6Zm37.52,16.63V472.44H433.35v55.12Zm65.19,0V472.44h-12v33.94l-25.82-33.94H461.68v55.12h12v-35l26.69,35Zm67.16,0L554.2,472.05H543l-23.61,55.51h12.36l5.05-12.36h23.31l5,12.36Zm-22-23.07H541.13l7.33-17.87Zm79.85,23.07V472.44h-12v33.94l-25.83-33.94H586.65v55.12h12v-35l26.7,35Zm62.59-8.9-7.71-7.79c-4.33,3.93-8.19,6.45-14.49,6.45-9.45,0-16-7.86-16-17.32v-.16c0-9.44,6.7-17.16,16-17.16,5.51,0,9.82,2.36,14.1,6.22l7.68-8.9c-5.11-5-11.33-8.5-21.72-8.5-16.93,0-28.74,12.83-28.74,28.47v.16c0,15.82,12,28.34,28.27,28.34,10.61,0,16.9-3.75,22.57-9.81Zm51.74,8.9v-10.8H720v-11.6h26v-10.8H720V483.23h29.54v-10.8H708v55.12Z" transform="translate(-250 -449.75)"/></g></svg>