<svg id="Layer_1" data-name="Layer 1" xmlns="http://www.w3.org/2000/svg" viewBox="0 0 638 176.85"><defs><style>.cls-1{fill:#5b9edd;}.cls-2{fill:#3d3a39;}.cls-3{fill:#fff;}</style></defs><title>Alipay Logo Vector</title><ellipse class="cls-1" cx="368.39" cy="36.42" rx="12.17" ry="10.85"/><path class="cls-2" d="M496.13,449v93.81h22.66V443.77H501.4A5.26,5.26,0,0,0,496.13,449Z" transform="translate(-181 -411.58)"/><path class="cls-2" d="M538.06,475.41v67.43h22.65v-72.7H543.33A5.27,5.27,0,0,0,538.06,475.41Z" transform="translate(-181 -411.58)"/><path class="cls-2" d="M622.08,468.45a31.19,31.19,0,0,0-20.79,8.27v-6.58H583.9a5.27,5.27,0,0,0-5.27,5.27v96.51h22.66v-32a23.12,23.12,0,0,0,14.37,4.45c21.13,0,37.36-18.26,37.36-41.25S636.29,468.45,622.08,468.45Zm-7.44,68.13c-4.64,0-9.57-4.39-13.35-8.79v-39c3.53-3.5,9.52-8.53,14.71-8.53,7.77,0,15,10.65,15,26.21S623.94,536.58,614.64,536.58Z" transform="translate(-181 -411.58)"/><path class="cls-2" d="M696.13,468.45c-20,0-26.54,4.23-26.54,4.23l2.37,5.07S679.4,475,691.57,475c13.52,0,14.88,7.27,14.88,16.23v4.18a55.72,55.72,0,0,0-15.39-2.15c-10.31,0-28.57,4.06-28.57,25.19s16.23,25.87,26.88,25.87c6.24,0,12.74-3.24,17.08-5.93v4.41H729.1V491.27C729.1,476.06,716.08,468.45,696.13,468.45Zm-1.35,66.27c-9.47,0-15.38-5.58-15.38-15.89s10.48-16.74,18.76-16.74c4.17,0,6.75,1.33,8.29,2.65V530A17.94,17.94,0,0,1,694.78,534.72Z" transform="translate(-181 -411.58)"/><path class="cls-2" d="M819,468.45H803.8L783.4,514.9l-.56-1.09-23.25-45.37H736.38l35.46,69.2.85,1.66L769,547.75c-5.73,11.36-22.13,10.6-22.13,10.6v9.51a75.62,75.62,0,0,0,12.18,0c4.87-.56,15.71-3.8,21-15h0l10.83-23.45h0Z" transform="translate(-181 -411.58)"/><path class="cls-2" d="M440.14,443.77h-9.62L422.71,460l-39.85,82.82h15.32l7.88-16.4h47.46l7.61,16.4h25l-43.18-93Zm10.16,75.74H409.4l20.82-43.28Z" transform="translate(-181 -411.58)"/><path class="cls-1" d="M357.87,439.31V561a27.73,27.73,0,0,1-27.73,27.44H208.73A27.73,27.73,0,0,1,181,560.69V439.31a27.73,27.73,0,0,1,27.73-27.73H330.14A27.73,27.73,0,0,1,357.87,439.31Z" transform="translate(-181 -411.58)"/><path class="cls-3" d="M299.2,511a270.46,270.46,0,0,0,15.11-35.87H279.23V462.76h43.24v-7.52H279.23V435.35H259.11v19.89H215.87v7.52h43.24v12.36H222.75v6.61H293a156.05,156.05,0,0,1-10.43,23.82c-18.85-5.82-36.23-9.88-50.19-9.88-33.48,0-40.9,16.82-39.32,32.2,1.28,12.27,10.41,30.18,38.3,30.18,25.49,0,46.06-14.6,58.72-32,24.14,11.12,49.64,24.81,67.78,34.92V531.8C338.7,525.23,318.51,517.56,299.2,511Zm-71.88,36.68c-23.58,0-27.23-13.29-27.63-21.22-.39-6.94,4.3-20,30.91-20,9.9,0,25.61,5,43.24,12.42C263.88,532,247.91,547.67,227.32,547.67Z" transform="translate(-181 -411.58)"/></svg>