<?xml version="1.0" encoding="iso-8859-1"?>
<!-- Generator: Adobe Illustrator 26.0.1, SVG Export Plug-In . SVG Version: 6.00 Build 0)  -->
<svg version="1.1" id="Layer_1" xmlns="http://www.w3.org/2000/svg" xmlns:xlink="http://www.w3.org/1999/xlink" x="0px" y="0px"
	 viewBox="0 0 1000 1000" style="enable-background:new 0 0 1000 1000;" xml:space="preserve">
<g id="watermark_1_">
	<g>
		<g id="watermark" style="opacity:0.61;">
			<g>
				<g>
					<g>
						<g>
							<polygon style="fill:#606060;" points="421.112,924.528 409.007,952.493 402.615,952.493 390.55,924.528 397.541,924.528 
								406.051,944.503 414.68,924.528 							"/>
						</g>
						<g>
							<path style="fill:#606060;" d="M442.323,943.185h-16.26c0.599,2.677,2.876,4.315,6.153,4.315
								c2.277,0,3.915-0.679,5.393-2.077l3.316,3.595c-1.997,2.278-4.994,3.476-8.868,3.476c-7.431,0-12.265-4.674-12.265-11.067
								c0-6.432,4.914-11.066,11.466-11.066c6.312,0,11.186,4.235,11.186,11.146C442.443,941.987,442.363,942.666,442.323,943.185
								 M425.983,939.55h10.587c-0.44-2.717-2.478-4.475-5.274-4.475C428.46,935.075,426.422,936.793,425.983,939.55"/>
						</g>
						<g>
							<path style="fill:#606060;" d="M444.997,941.427c0-6.471,4.994-11.066,11.985-11.066c4.514,0,8.07,1.958,9.628,5.473
								l-4.834,2.597c-1.159-2.038-2.877-2.956-4.834-2.956c-3.156,0-5.633,2.198-5.633,5.952c0,3.756,2.477,5.953,5.633,5.953
								c1.958,0,3.675-0.879,4.834-2.956l4.834,2.637c-1.558,3.436-5.114,5.433-9.628,5.433
								C449.991,952.493,444.997,947.899,444.997,941.427"/>
						</g>
						<g>
							<path style="fill:#606060;" d="M484.386,951.135c-1.279,0.919-3.157,1.358-5.074,1.358c-5.073,0-8.03-2.597-8.03-7.711
								v-8.829h-3.316v-4.794h3.316v-5.233h6.232v5.233h5.353v4.794h-5.353v8.749c0,1.837,0.998,2.836,2.677,2.836
								c0.918,0,1.837-0.279,2.517-0.799L484.386,951.135z"/>
						</g>
					</g>
					<g>
						<path style="fill:#606060;" d="M527.157,930.68v5.753c-0.519-0.04-0.918-0.08-1.398-0.08c-3.435,0-5.713,1.877-5.713,5.993
							v10.147h-6.232V931h5.953v2.836C521.284,931.759,523.841,930.68,527.157,930.68"/>
					</g>
					<g>
						<path style="fill:#606060;" d="M528.954,949.257l2.197-4.874c2.357,1.718,5.873,2.916,9.229,2.916
							c3.836,0,5.393-1.278,5.393-2.996c0-5.233-16.26-1.638-16.26-12.025c0-4.754,3.835-8.709,11.785-8.709
							c3.516,0,7.112,0.839,9.708,2.477l-1.998,4.914c-2.597-1.478-5.273-2.197-7.75-2.197c-3.835,0-5.313,1.438-5.313,3.196
							c0,5.154,16.259,1.598,16.259,11.865c0,4.675-3.875,8.67-11.865,8.67C535.905,952.493,531.43,951.175,528.954,949.257"/>
					</g>
					<g>
						<path style="fill:#606060;" d="M577.131,943.185h-16.26c0.599,2.677,2.876,4.315,6.153,4.315c2.277,0,3.915-0.679,5.393-2.077
							l3.316,3.595c-1.998,2.278-4.994,3.476-8.869,3.476c-7.431,0-12.265-4.674-12.265-11.067c0-6.432,4.914-11.066,11.466-11.066
							c6.312,0,11.187,4.235,11.187,11.146C577.251,941.987,577.171,942.666,577.131,943.185 M560.791,939.55h10.587
							c-0.439-2.717-2.477-4.475-5.273-4.475C563.268,935.075,561.231,936.793,560.791,939.55"/>
					</g>
					<g>
						<path style="fill:#606060;" d="M602.337,943.185h-16.26c0.599,2.677,2.876,4.315,6.152,4.315c2.277,0,3.915-0.679,5.393-2.077
							l3.316,3.595c-1.998,2.278-4.994,3.476-8.869,3.476c-7.431,0-12.265-4.674-12.265-11.067c0-6.432,4.914-11.066,11.466-11.066
							c6.312,0,11.186,4.235,11.186,11.146C602.457,941.987,602.377,942.666,602.337,943.185 M585.997,939.55h10.587
							c-0.439-2.717-2.477-4.475-5.273-4.475C588.474,935.075,586.437,936.793,585.997,939.55"/>
					</g>
					<g>
						<polygon style="fill:#606060;" points="615.838,944.064 612.841,947.02 612.841,952.493 606.61,952.493 606.61,922.85 
							612.841,922.85 612.841,939.629 621.95,931 629.381,931 620.432,940.108 630.18,952.493 622.63,952.493 						"/>
					</g>
					<g>
						<path style="fill:#606060;" d="M514.371,955.416L514.371,955.416l-6.226-6.226c-0.947,1.107-2.075,2.054-3.339,2.796
							c-0.201,0.15-0.406,0.296-0.616,0.433l6.589,6.589c0.992,0.992,2.601,0.992,3.592,0
							C515.363,958.017,515.363,956.408,514.371,955.416"/>
					</g>
					<g>
						<path style="fill:#F84D10;" d="M499.965,929.04c0.48-0.377,1.077-0.612,1.735-0.612c0.091,0,0.181,0.005,0.27,0.013
							c-0.466-0.34-1.041-0.542-1.663-0.542c-0.859,0-1.619,0.392-2.137,0.998c-0.111,0-0.218,0.013-0.328,0.016
							c0.086-0.167,0.139-0.354,0.139-0.555c0-0.509-0.311-0.945-0.752-1.13c0.19,0.275,0.301,0.608,0.301,0.968
							c0,0.267-0.066,0.517-0.176,0.742c-6.119,0.437-10.95,5.527-10.95,11.757c0,6.516,5.283,11.799,11.799,11.799
							c6.517,0,11.8-5.283,11.8-11.799C510.004,934.777,505.644,929.892,499.965,929.04 M495.61,932.114
							c0.947,0,1.837,0.244,2.611,0.674c0.813-0.532,1.785-0.842,2.828-0.842c1.547,0,2.934,0.68,3.883,1.756
							c-0.948-0.826-2.186-1.328-3.541-1.328c-0.977,0-1.895,0.261-2.686,0.716c-0.172,0.1-0.34,0.208-0.499,0.326
							c-0.142-0.104-0.29-0.203-0.444-0.292c-0.803-0.476-1.741-0.749-2.743-0.749c-0.653,0-1.279,0.117-1.86,0.331
							C493.895,932.328,494.727,932.114,495.61,932.114 M503.858,941.785c0.25,0.664,0.394,1.38,0.394,2.131
							c0,3.34-2.707,6.047-6.047,6.047c-3.339,0-6.047-2.707-6.047-6.047c0-0.751,0.143-1.467,0.394-2.131
							c-1.35-0.831-2.253-2.317-2.253-4.019c0-2.607,2.114-4.72,4.72-4.72c1.23,0,2.346,0.474,3.186,1.244
							c0.84-0.77,1.956-1.244,3.186-1.244c2.607,0,4.72,2.113,4.72,4.72C506.111,939.467,505.208,940.954,503.858,941.785"/>
					</g>
					<g>
						<path style="fill:#444444;" d="M503.627,937.351c0,1.082-0.879,1.961-1.961,1.961c-1.082,0-1.961-0.879-1.961-1.961
							s0.879-1.961,1.961-1.961c0.22,0,0.428,0.037,0.625,0.102c-0.065,0.135-0.099,0.287-0.099,0.445
							c0,0.595,0.482,1.076,1.077,1.076c0.11,0,0.217-0.017,0.318-0.048C503.613,937.089,503.627,937.218,503.627,937.351"/>
					</g>
					<g>
						<path style="fill:#444444;" d="M496.201,937.351c0,0.818-0.665,1.482-1.483,1.482c-0.818,0-1.483-0.664-1.483-1.482
							s0.665-1.483,1.483-1.483c0.166,0,0.324,0.027,0.473,0.077c-0.049,0.102-0.075,0.217-0.075,0.337
							c0,0.449,0.364,0.814,0.814,0.814c0.083,0,0.164-0.013,0.241-0.036C496.191,937.153,496.201,937.251,496.201,937.351"/>
					</g>
					<g>
						<g>
							<g>
								<rect x="484.56" y="939.024" style="fill:#606060;" width="1.34" height="1.34"/>
							</g>
							<g>
								<rect x="510.51" y="939.024" style="fill:#606060;" width="1.34" height="1.34"/>
							</g>
							<g>
								<path style="fill:#606060;" d="M511.332,939.572h-0.304c0-7.07-5.752-12.823-12.823-12.823
									c-7.07,0-12.823,5.753-12.823,12.823h-0.305c0-3.506,1.365-6.803,3.845-9.282c2.479-2.48,5.776-3.845,9.282-3.845
									c3.507,0,6.803,1.365,9.283,3.845C509.966,932.769,511.332,936.065,511.332,939.572"/>
							</g>
						</g>
						<g>
							<rect x="497.534" y="925.927" style="fill:#606060;" width="1.34" height="1.34"/>
						</g>
						<g>
							<rect x="489.006" y="926.445" style="fill:#606060;" width="18.397" height="0.304"/>
						</g>
						<g>
							<path style="fill:#606060;" d="M489.494,926.658c0,0.235-0.191,0.427-0.427,0.427c-0.235,0-0.426-0.191-0.426-0.427
								s0.191-0.427,0.426-0.427C489.303,926.231,489.494,926.422,489.494,926.658"/>
						</g>
						<g>
							<path style="fill:#606060;" d="M507.829,926.658c0,0.235-0.191,0.427-0.427,0.427c-0.235,0-0.426-0.191-0.426-0.427
								s0.191-0.427,0.426-0.427C507.639,926.231,507.829,926.422,507.829,926.658"/>
						</g>
					</g>
				</g>
				<g>
					<path style="fill:#606060;" d="M640.109,951.171c0,3.395-5.146,3.395-5.146,0C634.963,947.779,640.109,947.779,640.109,951.171
						z"/>
				</g>
				<g>
					<g>
						<g>
							<path style="fill:#606060;" d="M307.849,936.236l3.859,13.253l4.038-13.253h4.823l-6.145,17.721h-5.073l-1.822-5.216
								l-1.572-5.896l-1.571,5.896l-1.822,5.216h-5.073l-6.18-17.721h4.858l4.038,13.253l3.822-13.253H307.849z"/>
						</g>
						<g>
							<path style="fill:#606060;" d="M340.449,936.236l3.859,13.253l4.038-13.253h4.823l-6.145,17.721h-5.073l-1.822-5.216
								l-1.571-5.896l-1.572,5.896l-1.822,5.216h-5.073l-6.18-17.721h4.858l4.038,13.253l3.822-13.253H340.449z"/>
						</g>
						<g>
							<path style="fill:#606060;" d="M373.048,936.236l3.859,13.253l4.038-13.253h4.823l-6.145,17.721h-5.073l-1.822-5.216
								l-1.572-5.896l-1.571,5.896l-1.822,5.216h-5.073l-6.18-17.721h4.858l4.038,13.253l3.822-13.253H373.048z"/>
						</g>
					</g>
					<g>
						<path style="fill:#606060;" d="M393.123,951.412c0,3.395-5.146,3.395-5.146,0C387.977,948.02,393.123,948.02,393.123,951.412z
							"/>
					</g>
					<g>
						<path style="fill:#606060;" d="M658.296,951.171c-2.036,2.001-4.177,2.787-6.787,2.787c-5.108,0-9.361-3.072-9.361-9.323
							c0-6.251,4.253-9.326,9.361-9.326c2.502,0,4.43,0.716,6.359,2.609l-2.752,2.894c-1.036-0.931-2.321-1.393-3.534-1.393
							c-2.929,0-5.073,2.144-5.073,5.216c0,3.357,2.286,5.143,5,5.143c1.393,0,2.787-0.393,3.857-1.463L658.296,951.171z"/>
					</g>
					<g>
						<path style="fill:#606060;" d="M678.097,944.777c0,5.073-3.465,9.181-9.181,9.181c-5.716,0-9.146-4.107-9.146-9.181
							c0-5.038,3.502-9.181,9.111-9.181S678.097,939.739,678.097,944.777z M664.128,944.777c0,2.679,1.609,5.181,4.788,5.181
							c3.179,0,4.788-2.502,4.788-5.181c0-2.644-1.859-5.216-4.788-5.216C665.772,939.561,664.128,942.133,664.128,944.777z"/>
					</g>
					<g>
						<path style="fill:#606060;" d="M692.828,953.958v-9.431c0-2.324-1.216-4.43-3.61-4.43c-2.356,0-3.75,2.106-3.75,4.43v9.431
							h-4.36v-17.649h4.038l0.323,2.144c0.928-1.786,2.964-2.429,4.643-2.429c2.109,0,4.218,0.858,5.216,3.287
							c1.574-2.502,3.61-3.217,5.896-3.217c5,0,7.467,3.075,7.467,8.36v9.504h-4.361v-9.504c0-2.321-0.963-4.288-3.322-4.288
							c-2.356,0-3.822,2.036-3.822,4.36v9.431H692.828z"/>
					</g>
				</g>
			</g>
		</g>
		<g style="opacity:0.61;">
			<g>
				<g>
					<path style="fill:#606060;" d="M708.973,859.493c-0.013-2.665-2.087-4.618-4.766-4.659c-2.011-0.031-1.81,0.261-1.815-1.887
						c-0.006-2.389-0.015-4.778,0.006-7.166c0.007-0.824-0.243-1.505-0.787-2.125c-5.098-5.81-10.184-11.63-15.281-17.441
						c-0.262-0.299-0.599-0.532-0.901-0.796c-13.528,0-27.055,0-40.583,0c-1.729,0.639-2.482,1.889-2.478,3.72
						c0.021,8.159,0.009,16.318,0.008,24.478c0,1.21-0.007,1.281-1.197,1.201c-3.258-0.221-5.477,2.147-5.436,5.426
						c0.096,7.568,0.028,15.137,0.031,22.706c0.001,3.44,1.887,5.32,5.333,5.331c1.267,0.004,1.268,0.004,1.268,1.306
						c0.001,4.831-0.002,9.662,0.002,14.493c0.002,2.595,1.262,3.855,3.85,3.855c17.446,0.001,34.891,0.001,52.337,0
						c2.543,0,3.822-1.268,3.824-3.799c0.005-4.912,0.001-9.823,0.003-14.735c0-1.115,0.005-1.112,1.131-1.121
						c0.589-0.005,1.177,0.017,1.761-0.127c2.169-0.535,3.68-2.273,3.689-4.503C709.007,875.597,709.011,867.545,708.973,859.493z
						 M647.034,828.716c11.619-0.001,23.237-0.001,34.856,0c1.193,0,1.206,0.015,1.207,1.222c0.001,4.884-0.002,9.767,0.002,14.651
						c0.001,1.765,0.543,2.305,2.307,2.306c4.159,0.003,8.318,0,12.477,0.003c0.997,0.001,1.044,0.046,1.046,1.052
						c0.006,1.932,0.005,3.864,0,5.796c-0.003,1.038-0.051,1.085-1.098,1.085c-8.479,0.002-16.958,0.001-25.438,0.001
						c-8.452,0-16.905,0-25.357,0c-1.198,0-1.202-0.003-1.202-1.221c-0.001-7.889-0.001-15.778,0-23.667
						C645.835,828.724,645.844,828.716,647.034,828.716z M697.728,903.645c-8.454,0.001-16.908,0.001-25.362,0.001
						c-8.427,0-16.854,0.001-25.281,0c-1.245,0-1.249-0.003-1.249-1.262c-0.001-4.348-0.003-8.696,0.001-13.043
						c0.001-1.01,0.051-1.059,1.041-1.059c16.989-0.002,33.977-0.002,50.966,0c1.041,0,1.086,0.044,1.087,1.094
						c0.003,4.348,0.003,8.696,0.001,13.043C698.931,903.634,698.92,903.645,697.728,903.645z"/>
				</g>
				<g>
					<g>
						<rect x="668.546" y="828.478" style="fill:#606060;" width="3.825" height="2.295"/>
					</g>
					<g>
						<rect x="664.722" y="830.773" style="fill:#606060;" width="3.825" height="2.295"/>
					</g>
					<g>
						<rect x="668.546" y="833.068" style="fill:#606060;" width="3.825" height="2.295"/>
					</g>
					<g>
						<rect x="664.722" y="835.363" style="fill:#606060;" width="3.825" height="2.295"/>
					</g>
					<g>
						<rect x="668.546" y="837.658" style="fill:#606060;" width="3.825" height="2.295"/>
					</g>
					<g>
						<rect x="664.722" y="839.953" style="fill:#606060;" width="3.825" height="2.295"/>
					</g>
					<g>
						<rect x="668.546" y="842.247" style="fill:#606060;" width="3.825" height="2.295"/>
					</g>
					<g>
						<rect x="664.722" y="844.542" style="fill:#606060;" width="3.825" height="2.295"/>
					</g>
					<g>
						<rect x="668.546" y="846.837" style="fill:#606060;" width="3.825" height="2.295"/>
					</g>
					<g>
						<rect x="664.722" y="849.132" style="fill:#606060;" width="3.825" height="2.295"/>
					</g>
					<g>
						<rect x="668.546" y="851.427" style="fill:#606060;" width="3.825" height="2.295"/>
					</g>
					<g>
						<rect x="664.722" y="853.722" style="fill:#606060;" width="3.825" height="2.295"/>
					</g>
				</g>
			</g>
			<g>
				<path style="fill:#606060;" d="M364.231,859.493c-0.013-2.665-2.087-4.618-4.766-4.659c-2.011-0.031-1.81,0.261-1.815-1.887
					c-0.006-2.389-0.015-4.778,0.006-7.166c0.007-0.824-0.243-1.505-0.787-2.125c-5.098-5.81-10.184-11.63-15.281-17.441
					c-0.262-0.299-0.599-0.532-0.901-0.796c-13.528,0-27.055,0-40.583,0c-1.729,0.639-2.482,1.889-2.478,3.72
					c0.021,8.159,0.009,16.318,0.008,24.478c0,1.21-0.007,1.281-1.197,1.201c-3.258-0.221-5.477,2.147-5.436,5.426
					c0.096,7.568,0.028,15.137,0.031,22.706c0.001,3.44,1.887,5.32,5.333,5.331c1.267,0.004,1.268,0.004,1.268,1.306
					c0.001,4.831-0.002,9.662,0.002,14.493c0.002,2.595,1.262,3.855,3.85,3.855c17.446,0.001,34.891,0.001,52.337,0
					c2.543,0,3.822-1.268,3.824-3.799c0.005-4.912,0.001-9.823,0.003-14.735c0-1.115,0.004-1.112,1.131-1.121
					c0.589-0.005,1.177,0.017,1.761-0.127c2.169-0.535,3.68-2.273,3.689-4.503C364.264,875.597,364.269,867.545,364.231,859.493z
					 M302.292,828.716c11.619-0.001,23.237-0.001,34.856,0c1.192,0,1.206,0.015,1.207,1.222c0.001,4.884-0.001,9.767,0.002,14.651
					c0.001,1.765,0.543,2.305,2.307,2.306c4.159,0.003,8.318,0,12.477,0.003c0.997,0.001,1.044,0.046,1.046,1.052
					c0.006,1.932,0.005,3.864,0,5.796c-0.003,1.038-0.051,1.085-1.098,1.085c-8.479,0.002-16.958,0.001-25.438,0.001
					c-8.452,0-16.905,0-25.357,0c-1.198,0-1.202-0.003-1.202-1.221c-0.001-7.889-0.001-15.778,0-23.667
					C301.093,828.724,301.102,828.716,302.292,828.716z M352.985,903.645c-8.454,0.001-16.908,0.001-25.362,0.001
					c-8.427,0-16.854,0.001-25.281,0c-1.245,0-1.249-0.003-1.249-1.262c-0.001-4.348-0.003-8.696,0.001-13.043
					c0.001-1.01,0.051-1.059,1.041-1.059c16.989-0.002,33.977-0.002,50.966,0c1.041,0,1.086,0.044,1.087,1.094
					c0.003,4.348,0.003,8.696,0.001,13.043C354.188,903.634,354.177,903.645,352.985,903.645z"/>
			</g>
			<g>
				<path style="fill:#FFFFFF;" d="M303.581,879.891v-17.193h6.051c0.816,0,1.581,0.132,2.293,0.396
					c0.712,0.264,1.333,0.636,1.861,1.117c0.527,0.48,0.944,1.053,1.248,1.717c0.304,0.665,0.456,1.397,0.456,2.198
					c0,0.816-0.152,1.557-0.456,2.221s-0.721,1.236-1.248,1.717c-0.529,0.48-1.149,0.852-1.861,1.117
					c-0.713,0.264-1.477,0.396-2.293,0.396h-2.809v6.315H303.581z M309.68,870.503c0.848,0,1.489-0.241,1.921-0.721
					c0.432-0.48,0.648-1.032,0.648-1.656c0-0.304-0.052-0.601-0.156-0.889c-0.105-0.288-0.264-0.54-0.48-0.756
					c-0.216-0.217-0.484-0.388-0.805-0.516c-0.32-0.129-0.696-0.193-1.128-0.193h-2.857v4.731H309.68z"/>
				<path style="fill:#FFFFFF;" d="M317.796,862.699h3.77l6.916,11.526h0.191l-0.191-3.314v-8.212h3.217v17.193h-3.409l-7.3-12.174
					h-0.191l0.191,3.314v8.86h-3.193V862.699z"/>
				<path style="fill:#FFFFFF;" d="M343.08,870.454h8.429c0.048,0.193,0.087,0.425,0.12,0.697c0.031,0.272,0.048,0.544,0.048,0.816
					c0,1.104-0.167,2.145-0.504,3.121c-0.336,0.977-0.865,1.849-1.585,2.618c-0.768,0.817-1.69,1.449-2.761,1.897
					c-1.073,0.448-2.298,0.672-3.674,0.672c-1.249,0-2.426-0.224-3.53-0.672c-1.104-0.447-2.065-1.072-2.881-1.873
					c-0.816-0.8-1.465-1.749-1.945-2.845c-0.48-1.097-0.72-2.293-0.72-3.59c0-1.296,0.24-2.493,0.72-3.589s1.129-2.045,1.945-2.845
					c0.816-0.8,1.777-1.425,2.881-1.873c1.104-0.448,2.281-0.672,3.53-0.672c1.392,0,2.637,0.24,3.734,0.72
					c1.097,0.48,2.036,1.144,2.821,1.993l-2.232,2.185c-0.562-0.592-1.185-1.044-1.874-1.357s-1.513-0.468-2.473-0.468
					c-0.786,0-1.53,0.14-2.234,0.421c-0.705,0.28-1.321,0.676-1.85,1.188c-0.527,0.512-0.949,1.133-1.259,1.861
					c-0.312,0.728-0.469,1.541-0.469,2.437c0,0.897,0.157,1.709,0.469,2.438c0.311,0.728,0.735,1.349,1.271,1.861
					c0.536,0.512,1.156,0.909,1.862,1.188c0.704,0.281,1.457,0.421,2.258,0.421c0.911,0,1.684-0.132,2.317-0.396
					c0.632-0.264,1.171-0.604,1.62-1.021c0.321-0.288,0.598-0.652,0.829-1.092s0.412-0.932,0.541-1.477h-5.404V870.454z"/>
			</g>
			<g>
				<path style="fill:#606060;" d="M443.437,859.493c-0.013-2.665-2.087-4.618-4.766-4.659c-2.011-0.031-1.81,0.261-1.815-1.887
					c-0.006-2.389-0.015-4.778,0.006-7.166c0.007-0.824-0.243-1.505-0.787-2.125c-5.098-5.81-10.184-11.63-15.281-17.441
					c-0.262-0.299-0.599-0.532-0.901-0.796c-13.528,0-27.055,0-40.583,0c-1.729,0.639-2.482,1.889-2.478,3.72
					c0.021,8.159,0.009,16.318,0.008,24.478c0,1.21-0.007,1.281-1.197,1.201c-3.258-0.221-5.477,2.147-5.436,5.426
					c0.096,7.568,0.028,15.137,0.031,22.706c0.001,3.44,1.887,5.32,5.333,5.331c1.267,0.004,1.268,0.004,1.268,1.306
					c0.001,4.831-0.002,9.662,0.002,14.493c0.002,2.595,1.262,3.855,3.85,3.855c17.446,0.001,34.891,0.001,52.337,0
					c2.543,0,3.822-1.268,3.824-3.799c0.005-4.912,0.001-9.823,0.003-14.735c0-1.115,0.004-1.112,1.131-1.121
					c0.589-0.005,1.177,0.017,1.761-0.127c2.169-0.535,3.68-2.273,3.689-4.503C443.47,875.597,443.475,867.545,443.437,859.493z
					 M381.498,828.716c11.619-0.001,23.237-0.001,34.856,0c1.192,0,1.206,0.015,1.207,1.222c0.001,4.884-0.001,9.767,0.002,14.651
					c0.001,1.765,0.543,2.305,2.307,2.306c4.159,0.003,8.318,0,12.477,0.003c0.997,0.001,1.044,0.046,1.046,1.052
					c0.006,1.932,0.005,3.864,0,5.796c-0.003,1.038-0.051,1.085-1.098,1.085c-8.479,0.002-16.958,0.001-25.438,0.001
					c-8.452,0-16.905,0-25.357,0c-1.198,0-1.202-0.003-1.202-1.221c-0.001-7.889-0.001-15.778,0-23.667
					C380.299,828.724,380.308,828.716,381.498,828.716z M432.192,903.645c-8.454,0.001-16.908,0.001-25.362,0.001
					c-8.427,0-16.854,0.001-25.281,0c-1.245,0-1.249-0.003-1.249-1.262c-0.001-4.348-0.002-8.696,0.001-13.043
					c0.001-1.01,0.051-1.059,1.041-1.059c16.989-0.002,33.977-0.002,50.966,0c1.041,0,1.086,0.044,1.087,1.094
					c0.003,4.348,0.003,8.696,0.001,13.043C433.394,903.634,433.384,903.645,432.192,903.645z"/>
			</g>
			<g>
				<path style="fill:#FFFFFF;" d="M402.272,862.699h3.698l6.46,17.193h-3.578l-1.416-4.106h-6.628l-1.417,4.106h-3.578
					L402.272,862.699z M406.379,872.808l-1.537-4.298l-0.625-2.089h-0.192l-0.625,2.089l-1.537,4.298H406.379z"/>
				<path style="fill:#FFFFFF;" d="M415.815,866.541c-0.273,0-0.533-0.052-0.781-0.156c-0.248-0.104-0.465-0.248-0.648-0.432
					c-0.184-0.184-0.328-0.396-0.432-0.636c-0.105-0.241-0.156-0.504-0.156-0.793s0.052-0.552,0.156-0.793
					c0.104-0.24,0.248-0.452,0.432-0.636c0.184-0.184,0.4-0.328,0.648-0.432c0.248-0.104,0.508-0.156,0.781-0.156
					c0.56,0,1.041,0.196,1.441,0.588c0.4,0.393,0.601,0.869,0.601,1.429c0,0.56-0.201,1.037-0.601,1.428
					C416.856,866.345,416.375,866.541,415.815,866.541z M414.255,879.891v-11.766h3.145v11.766H414.255z"/>
			</g>
			<g>
				<path style="fill:#606060;" d="M524.043,859.493c-0.013-2.665-2.087-4.618-4.766-4.659c-2.011-0.031-1.81,0.261-1.815-1.887
					c-0.006-2.389-0.015-4.778,0.006-7.166c0.007-0.824-0.243-1.505-0.787-2.125c-5.098-5.81-10.184-11.63-15.281-17.441
					c-0.262-0.299-0.599-0.532-0.901-0.796c-13.528,0-27.055,0-40.583,0c-1.729,0.639-2.482,1.889-2.478,3.72
					c0.021,8.159,0.009,16.318,0.008,24.478c0,1.21-0.007,1.281-1.197,1.201c-3.258-0.221-5.477,2.147-5.436,5.426
					c0.096,7.568,0.028,15.137,0.031,22.706c0.001,3.44,1.887,5.32,5.333,5.331c1.267,0.004,1.268,0.004,1.268,1.306
					c0.001,4.831-0.002,9.662,0.002,14.493c0.002,2.595,1.262,3.855,3.85,3.855c17.446,0.001,34.891,0.001,52.337,0
					c2.543,0,3.822-1.268,3.824-3.799c0.005-4.912,0.001-9.823,0.003-14.735c0-1.115,0.004-1.112,1.131-1.121
					c0.589-0.005,1.177,0.017,1.761-0.127c2.169-0.535,3.68-2.273,3.689-4.503C524.076,875.597,524.081,867.545,524.043,859.493z
					 M462.104,828.716c11.619-0.001,23.237-0.001,34.856,0c1.192,0,1.206,0.015,1.207,1.222c0.001,4.884-0.001,9.767,0.002,14.651
					c0.001,1.765,0.543,2.305,2.307,2.306c4.159,0.003,8.318,0,12.477,0.003c0.997,0.001,1.044,0.046,1.046,1.052
					c0.006,1.932,0.005,3.864,0,5.796c-0.003,1.038-0.051,1.085-1.098,1.085c-8.479,0.002-16.958,0.001-25.438,0.001
					c-8.452,0-16.905,0-25.357,0c-1.198,0-1.202-0.003-1.202-1.221c-0.001-7.889-0.001-15.778,0-23.667
					C460.905,828.724,460.914,828.716,462.104,828.716z M512.798,903.645c-8.454,0.001-16.908,0.001-25.362,0.001
					c-8.427,0-16.854,0.001-25.281,0c-1.245,0-1.249-0.003-1.249-1.262c-0.001-4.348-0.002-8.696,0.001-13.043
					c0.001-1.01,0.051-1.059,1.041-1.059c16.989-0.002,33.977-0.002,50.966,0c1.041,0,1.086,0.044,1.087,1.094
					c0.003,4.348,0.003,8.696,0.001,13.043C514,903.634,513.989,903.645,512.798,903.645z"/>
			</g>
			<g>
				<path style="fill:#FFFFFF;" d="M470.308,880.275c-0.737,0-1.441-0.104-2.113-0.312c-0.672-0.208-1.289-0.52-1.849-0.936
					c-0.56-0.416-1.048-0.925-1.464-1.525c-0.417-0.601-0.745-1.301-0.985-2.101l3.049-1.2c0.224,0.864,0.616,1.581,1.177,2.149
					s1.297,0.852,2.209,0.852c0.336,0,0.66-0.044,0.973-0.132c0.312-0.087,0.592-0.216,0.84-0.384
					c0.248-0.168,0.444-0.38,0.589-0.636c0.144-0.256,0.216-0.552,0.216-0.888c0-0.32-0.056-0.608-0.168-0.865
					c-0.112-0.255-0.3-0.495-0.564-0.72c-0.264-0.224-0.609-0.44-1.033-0.648c-0.424-0.208-0.948-0.424-1.572-0.648l-1.056-0.384
					c-0.465-0.16-0.933-0.376-1.405-0.648c-0.472-0.272-0.9-0.6-1.284-0.985c-0.385-0.384-0.701-0.836-0.949-1.357
					c-0.249-0.52-0.372-1.108-0.372-1.765c0-0.672,0.132-1.301,0.396-1.885c0.264-0.584,0.64-1.096,1.129-1.537
					c0.488-0.44,1.072-0.784,1.753-1.032c0.681-0.248,1.437-0.372,2.269-0.372c0.864,0,1.612,0.116,2.245,0.348
					c0.633,0.232,1.168,0.528,1.609,0.888c0.44,0.36,0.796,0.757,1.068,1.188c0.272,0.433,0.472,0.84,0.601,1.225l-2.857,1.2
					c-0.161-0.48-0.453-0.913-0.876-1.297c-0.425-0.384-1.005-0.576-1.741-0.576c-0.704,0-1.289,0.164-1.753,0.492
					c-0.465,0.329-0.697,0.757-0.697,1.285c0,0.512,0.224,0.949,0.672,1.309c0.448,0.36,1.161,0.708,2.137,1.044l1.081,0.36
					c0.688,0.241,1.316,0.517,1.885,0.828c0.568,0.312,1.056,0.684,1.465,1.117c0.408,0.433,0.72,0.925,0.936,1.477
					c0.217,0.552,0.324,1.189,0.324,1.909c0,0.897-0.18,1.669-0.54,2.317c-0.36,0.648-0.82,1.181-1.38,1.597
					c-0.561,0.416-1.193,0.728-1.897,0.936C471.668,880.172,470.98,880.275,470.308,880.275z"/>
				<path style="fill:#FFFFFF;" d="M477.175,862.699h3.506l3.554,10.349l0.625,2.209h0.192l0.672-2.209l3.698-10.349h3.506
					l-6.268,17.193h-3.409L477.175,862.699z"/>
				<path style="fill:#FFFFFF;" d="M502.388,870.454h8.428c0.048,0.193,0.088,0.425,0.12,0.697c0.033,0.272,0.049,0.544,0.049,0.816
					c0,1.104-0.169,2.145-0.505,3.121c-0.336,0.977-0.864,1.849-1.585,2.618c-0.768,0.817-1.688,1.449-2.761,1.897
					c-1.073,0.448-2.298,0.672-3.674,0.672c-1.249,0-2.425-0.224-3.529-0.672c-1.105-0.447-2.066-1.072-2.882-1.873
					c-0.816-0.8-1.465-1.749-1.945-2.845c-0.48-1.097-0.72-2.293-0.72-3.59c0-1.296,0.241-2.493,0.72-3.589
					c0.48-1.097,1.129-2.045,1.945-2.845c0.816-0.8,1.777-1.425,2.882-1.873c1.104-0.448,2.28-0.672,3.529-0.672
					c1.392,0,2.637,0.24,3.734,0.72c1.097,0.48,2.038,1.144,2.822,1.993l-2.234,2.185c-0.56-0.592-1.185-1.044-1.874-1.357
					c-0.687-0.312-1.512-0.468-2.473-0.468c-0.784,0-1.528,0.14-2.234,0.421c-0.704,0.28-1.321,0.676-1.848,1.188
					c-0.528,0.512-0.949,1.133-1.261,1.861c-0.312,0.728-0.468,1.541-0.468,2.437c0,0.897,0.156,1.709,0.468,2.438
					c0.312,0.728,0.737,1.349,1.273,1.861c0.536,0.512,1.156,0.909,1.86,1.188c0.705,0.281,1.457,0.421,2.258,0.421
					c0.913,0,1.685-0.132,2.317-0.396c0.632-0.264,1.173-0.604,1.621-1.021c0.32-0.288,0.596-0.652,0.828-1.092
					c0.233-0.44,0.412-0.932,0.541-1.477h-5.402V870.454z"/>
			</g>
			<g>
				<path style="fill:#606060;" d="M602.976,859.493c-0.013-2.665-2.087-4.618-4.766-4.659c-2.011-0.031-1.81,0.261-1.815-1.887
					c-0.006-2.389-0.015-4.778,0.006-7.166c0.007-0.824-0.243-1.505-0.787-2.125c-5.098-5.81-10.184-11.63-15.281-17.441
					c-0.262-0.299-0.599-0.532-0.901-0.796c-13.528,0-27.055,0-40.583,0c-1.729,0.639-2.482,1.889-2.478,3.72
					c0.021,8.159,0.009,16.318,0.008,24.478c0,1.21-0.007,1.281-1.197,1.201c-3.258-0.221-5.477,2.147-5.436,5.426
					c0.096,7.568,0.028,15.137,0.031,22.706c0.001,3.44,1.887,5.32,5.333,5.331c1.267,0.004,1.268,0.004,1.268,1.306
					c0.001,4.831-0.002,9.662,0.002,14.493c0.002,2.595,1.262,3.855,3.85,3.855c17.446,0.001,34.891,0.001,52.337,0
					c2.543,0,3.822-1.268,3.824-3.799c0.005-4.912,0.001-9.823,0.003-14.735c0-1.115,0.005-1.112,1.131-1.121
					c0.589-0.005,1.178,0.017,1.761-0.127c2.169-0.535,3.68-2.273,3.689-4.503C603.01,875.597,603.015,867.545,602.976,859.493z
					 M541.037,828.716c11.619-0.001,23.237-0.001,34.856,0c1.193,0,1.206,0.015,1.207,1.222c0.001,4.884-0.002,9.767,0.002,14.651
					c0.001,1.765,0.543,2.305,2.307,2.306c4.159,0.003,8.318,0,12.477,0.003c0.997,0.001,1.044,0.046,1.046,1.052
					c0.006,1.932,0.005,3.864,0,5.796c-0.003,1.038-0.051,1.085-1.098,1.085c-8.479,0.002-16.958,0.001-25.438,0.001
					c-8.452,0-16.905,0-25.357,0c-1.198,0-1.202-0.003-1.202-1.221c-0.001-7.889-0.001-15.778,0-23.667
					C539.838,828.724,539.847,828.716,541.037,828.716z M591.731,903.645c-8.454,0.001-16.908,0.001-25.362,0.001
					c-8.427,0-16.854,0.001-25.281,0c-1.245,0-1.249-0.003-1.249-1.262c-0.001-4.348-0.003-8.696,0.001-13.043
					c0.001-1.01,0.051-1.059,1.041-1.059c16.989-0.002,33.977-0.002,50.966,0c1.041,0,1.086,0.044,1.087,1.094
					c0.003,4.348,0.003,8.696,0.001,13.043C592.934,903.634,592.923,903.645,591.731,903.645z"/>
			</g>
			<g>
				<path style="fill:#FFFFFF;" d="M549.998,865.772v3.986h6.891v3.074h-6.891v3.986h7.659v3.073h-10.901v-17.193h10.901v3.073
					H549.998z"/>
				<path style="fill:#FFFFFF;" d="M560.635,879.891v-17.193h6.051c0.816,0,1.581,0.132,2.293,0.396
					c0.712,0.264,1.333,0.636,1.861,1.117c0.528,0.48,0.944,1.053,1.249,1.717c0.304,0.665,0.456,1.397,0.456,2.198
					c0,0.816-0.152,1.557-0.456,2.221c-0.305,0.664-0.721,1.236-1.249,1.717c-0.528,0.48-1.149,0.852-1.861,1.117
					c-0.713,0.264-1.477,0.396-2.293,0.396h-2.809v6.315H560.635z M566.735,870.503c0.848,0,1.489-0.241,1.921-0.721
					c0.432-0.48,0.648-1.032,0.648-1.656c0-0.304-0.052-0.601-0.156-0.889c-0.105-0.288-0.264-0.54-0.48-0.756
					c-0.216-0.217-0.484-0.388-0.805-0.516c-0.32-0.129-0.696-0.193-1.128-0.193h-2.857v4.731H566.735z"/>
				<path style="fill:#FFFFFF;" d="M580.109,880.275c-0.737,0-1.441-0.104-2.113-0.312c-0.672-0.208-1.289-0.52-1.849-0.936
					c-0.56-0.416-1.049-0.925-1.465-1.525c-0.416-0.601-0.744-1.301-0.985-2.101l3.049-1.2c0.224,0.864,0.616,1.581,1.177,2.149
					c0.56,0.568,1.296,0.852,2.209,0.852c0.336,0,0.66-0.044,0.973-0.132c0.312-0.087,0.592-0.216,0.84-0.384
					c0.248-0.168,0.444-0.38,0.588-0.636c0.144-0.256,0.217-0.552,0.217-0.888c0-0.32-0.057-0.608-0.168-0.865
					c-0.112-0.255-0.3-0.495-0.565-0.72c-0.264-0.224-0.608-0.44-1.032-0.648c-0.424-0.208-0.949-0.424-1.573-0.648l-1.056-0.384
					c-0.465-0.16-0.932-0.376-1.404-0.648c-0.473-0.272-0.901-0.6-1.285-0.985c-0.384-0.384-0.701-0.836-0.949-1.357
					c-0.248-0.52-0.372-1.108-0.372-1.765c0-0.672,0.132-1.301,0.396-1.885c0.264-0.584,0.64-1.096,1.129-1.537
					c0.489-0.44,1.073-0.784,1.753-1.032c0.68-0.248,1.437-0.372,2.269-0.372c0.865,0,1.613,0.116,2.246,0.348
					c0.632,0.232,1.168,0.528,1.609,0.888c0.44,0.36,0.796,0.757,1.068,1.188c0.272,0.433,0.472,0.84,0.601,1.225l-2.857,1.2
					c-0.161-0.48-0.453-0.913-0.877-1.297s-1.005-0.576-1.741-0.576c-0.705,0-1.289,0.164-1.753,0.492
					c-0.465,0.329-0.696,0.757-0.696,1.285c0,0.512,0.224,0.949,0.672,1.309c0.448,0.36,1.16,0.708,2.137,1.044l1.08,0.36
					c0.689,0.241,1.317,0.517,1.885,0.828c0.568,0.312,1.056,0.684,1.465,1.117c0.408,0.433,0.72,0.925,0.936,1.477
					c0.216,0.552,0.324,1.189,0.324,1.909c0,0.897-0.18,1.669-0.54,2.317c-0.36,0.648-0.821,1.181-1.38,1.597
					c-0.561,0.416-1.193,0.728-1.897,0.936C581.47,880.172,580.782,880.275,580.109,880.275z"/>
			</g>
			<g>
				<path style="fill:#FFFFFF;" d="M655.431,876.625l8.716-10.854h-8.332v-3.073h12.103v3.266l-8.621,10.854h8.716v3.073h-12.582
					V876.625z"/>
				<path style="fill:#FFFFFF;" d="M670.702,862.699h3.242v17.193h-3.242V862.699z"/>
				<path style="fill:#FFFFFF;" d="M677.402,879.891v-17.193h6.051c0.817,0,1.581,0.132,2.293,0.396
					c0.712,0.264,1.333,0.636,1.861,1.117s0.944,1.053,1.249,1.717c0.304,0.665,0.456,1.397,0.456,2.198
					c0,0.816-0.152,1.557-0.456,2.221c-0.305,0.664-0.721,1.236-1.249,1.717s-1.149,0.852-1.861,1.117
					c-0.713,0.264-1.477,0.396-2.293,0.396h-2.809v6.315H677.402z M683.501,870.503c0.848,0,1.489-0.241,1.921-0.721
					c0.433-0.48,0.648-1.032,0.648-1.656c0-0.304-0.052-0.601-0.156-0.889c-0.105-0.288-0.264-0.54-0.48-0.756
					c-0.216-0.217-0.484-0.388-0.805-0.516c-0.32-0.129-0.696-0.193-1.128-0.193h-2.857v4.731H683.501z"/>
			</g>
		</g>
		<g style="opacity:0.61;">
			<path style="fill:#606060;" d="M609.144,863.785h19.739v4.881h-19.739V863.785z M609.144,872.201h19.739v4.884h-19.739V872.201z"
				/>
		</g>
	</g>
	<g style="opacity:0.61;">
		<path style="fill:#606060;" d="M297,963.076h3.498c2.75,0,4.603,1.768,4.603,4.297s-1.854,4.296-4.603,4.296H297V963.076z
			 M300.449,970.883c2.283,0,3.756-1.448,3.756-3.51s-1.473-3.511-3.756-3.511h-2.541v7.021H300.449z"/>
		<path style="fill:#606060;" d="M315.251,967.373c0-2.504,1.915-4.37,4.517-4.37c2.577,0,4.505,1.853,4.505,4.37
			c0,2.516-1.927,4.369-4.505,4.369C317.166,971.742,315.251,969.877,315.251,967.373z M323.365,967.373
			c0-2.05-1.534-3.56-3.596-3.56c-2.075,0-3.621,1.51-3.621,3.56c0,2.049,1.546,3.559,3.621,3.559
			C321.831,970.932,323.365,969.422,323.365,967.373z"/>
		<path style="fill:#606060;" d="M346.724,963.076l-2.897,8.593h-0.957l-2.516-7.328l-2.529,7.328h-0.945l-2.897-8.593h0.933
			l2.479,7.389l2.566-7.389h0.847l2.529,7.426l2.516-7.426H346.724z"/>
		<path style="fill:#606060;" d="M364.435,963.076v8.593h-0.749l-5.524-6.972v6.972h-0.908v-8.593h0.749l5.536,6.973v-6.973H364.435
			z"/>
		<path style="fill:#606060;" d="M376.108,963.076h0.908v7.807h4.812v0.786h-5.72V963.076z"/>
		<path style="fill:#606060;" d="M391.279,967.373c0-2.504,1.915-4.37,4.517-4.37c2.577,0,4.505,1.853,4.505,4.37
			c0,2.516-1.927,4.369-4.505,4.369C393.194,971.742,391.279,969.877,391.279,967.373z M399.392,967.373
			c0-2.05-1.534-3.56-3.596-3.56c-2.075,0-3.621,1.51-3.621,3.56c0,2.049,1.546,3.559,3.621,3.559
			C397.858,970.932,399.392,969.422,399.392,967.373z"/>
		<path style="fill:#606060;" d="M416.478,969.374h-4.787l-1.031,2.295h-0.945l3.928-8.593h0.896l3.928,8.593h-0.957
			L416.478,969.374z M416.147,968.637l-2.062-4.615l-2.062,4.615H416.147z"/>
		<path style="fill:#606060;" d="M428.765,963.076h3.498c2.75,0,4.603,1.768,4.603,4.297s-1.854,4.296-4.603,4.296h-3.498V963.076z
			 M432.214,970.883c2.283,0,3.756-1.448,3.756-3.51s-1.473-3.511-3.756-3.511h-2.541v7.021H432.214z"/>
		<path style="fill:#606060;" d="M465.256,969.374h-4.787l-1.031,2.295h-0.945l3.928-8.593h0.896l3.928,8.593h-0.957
			L465.256,969.374z M464.925,968.637l-2.062-4.615l-2.062,4.615H464.925z"/>
		<path style="fill:#606060;" d="M477.543,963.076h0.908v7.807h4.812v0.786h-5.72V963.076z"/>
		<path style="fill:#606060;" d="M493.647,963.076h0.908v7.807h4.812v0.786h-5.72V963.076z"/>
		<path style="fill:#606060;" d="M522.749,963.862v3.376h4.443v0.786h-4.443v3.646h-0.909v-8.593h5.891v0.786H522.749z"/>
		<path style="fill:#606060;" d="M538.485,963.076h0.909v8.593h-0.909V963.076z"/>
		<path style="fill:#606060;" d="M551.067,963.076h0.909v7.807h4.811v0.786h-5.72V963.076z"/>
		<path style="fill:#606060;" d="M573.246,970.883v0.786h-6.076v-8.593h5.891v0.786h-4.983v3.056h4.443v0.774h-4.443v3.191H573.246z
			"/>
		<path style="fill:#606060;" d="M597.255,963.862v3.376h4.443v0.786h-4.443v3.646h-0.909v-8.593h5.891v0.786H597.255z"/>
		<path style="fill:#606060;" d="M612.119,967.373c0-2.504,1.915-4.37,4.517-4.37c2.577,0,4.505,1.853,4.505,4.37
			c0,2.516-1.927,4.369-4.505,4.369C614.034,971.742,612.119,969.877,612.119,967.373z M620.232,967.373
			c0-2.05-1.534-3.56-3.596-3.56c-2.075,0-3.622,1.51-3.622,3.56c0,2.049,1.547,3.559,3.622,3.559
			C618.698,970.932,620.232,969.422,620.232,967.373z"/>
		<path style="fill:#606060;" d="M637.919,971.669l-1.963-2.762c-0.222,0.024-0.442,0.037-0.688,0.037h-2.307v2.725h-0.909v-8.593
			h3.216c2.185,0,3.511,1.105,3.511,2.946c0,1.351-0.712,2.295-1.964,2.7l2.099,2.946H637.919z M637.871,966.022
			c0-1.375-0.909-2.161-2.627-2.161h-2.283v4.309h2.283C636.962,968.17,637.871,967.373,637.871,966.022z"/>
		<path style="fill:#606060;" d="M658.724,963.076v8.593h-0.871v-6.874l-3.376,5.782h-0.429l-3.376-5.745v6.837h-0.872v-8.593h0.749
			l3.732,6.371l3.695-6.371H658.724z"/>
		<path style="fill:#606060;" d="M675.787,969.374h-4.788l-1.031,2.295h-0.946l3.928-8.593h0.896l3.928,8.593h-0.957
			L675.787,969.374z M675.455,968.637l-2.062-4.615l-2.062,4.615H675.455z"/>
		<path style="fill:#606060;" d="M689.312,963.862h-3.02v-0.786h6.948v0.786h-3.02v7.807h-0.908V963.862z"/>
		<path style="fill:#606060;" d="M702.605,970.626l0.356-0.7c0.614,0.601,1.706,1.043,2.835,1.043c1.608,0,2.308-0.675,2.308-1.522
			c0-2.357-5.29-0.908-5.29-4.087c0-1.265,0.982-2.357,3.167-2.357c0.97,0,1.976,0.282,2.664,0.761l-0.307,0.724
			c-0.737-0.479-1.596-0.712-2.357-0.712c-1.571,0-2.271,0.7-2.271,1.559c0,2.357,5.29,0.933,5.29,4.063
			c0,1.265-1.006,2.344-3.204,2.344C704.508,971.742,703.243,971.288,702.605,970.626z"/>
	</g>
</g>
<g>
</g>
<g>
	<g>
		<path style="fill:#E4761B;" d="M713.542,596.839l-28.896,97.701l-56.725-15.514L713.542,596.839z"/>
		<path style="fill:#E4761B;" d="M685.049,695.263l-58.292-15.942l87.986-84.456L685.049,695.263z M629.083,678.73l55.159,15.086
			l28.098-95.003L629.083,678.73z"/>
	</g>
	<g>
		<path style="fill:#E4761B;" d="M627.92,679.026l54.712-74.963l30.909-7.224L627.92,679.026z"/>
		<path style="fill:#E4761B;" d="M623.471,684.117l58.813-80.581l33.225-7.765L623.471,684.117z M682.981,604.589l-50.612,69.345
			l79.205-76.028L682.981,604.589z"/>
	</g>
	<g>
		<path style="fill:#F6851B;" d="M671.027,523.178l42.515,73.66l-30.909,7.224L671.027,523.178z M671.027,523.178l27.356-18.948
			l15.158,92.608L671.027,523.178z"/>
		<path style="fill:#F6851B;" d="M682.138,604.786l-11.681-81.411l-0.216-0.373l0.147-0.102l-0.384-2.677l1.214,2.103l27.598-19.115
			l15.292,93.426l0.345,0.597l-0.238,0.056l0.434,2.654l-1.401-2.428L682.138,604.786z M672.049,526.134l11.078,77.205l29.503-6.895
			L672.049,526.134z M671.812,523.355l40.621,70.379l-14.483-88.483L671.812,523.355z"/>
	</g>
	<g>
		<path style="fill:#763D16;" d="M636.21,467.519l78.634-32.212l-3.908,17.645L636.21,467.519z M708.449,474.151l-72.239-6.632
			l74.726-14.566L708.449,474.151z"/>
		<path style="fill:#763D16;" d="M708.97,474.793l-72.73-6.677l-5.82,1.135l3.328-1.363l-1.716-0.158l4.007-0.781l79.627-32.618
			l-4.146,18.721L708.97,474.793z M640.388,467.308l67.541,6.201l2.325-19.819L640.388,467.308z M714.021,436.284L642,465.787
			l68.442-13.341L714.021,436.284z"/>
	</g>
	<g>
		<path style="fill:#763D16;" d="M708.449,474.151l-10.066,30.08l-62.173-36.712L708.449,474.151z M724.2,442.768l-13.264,10.185
			l3.908-17.645L724.2,442.768z M708.449,474.151l2.487-21.198l10.54,8.763L708.449,474.151z"/>
		<path style="fill:#763D16;" d="M698.713,505.113l-65.074-38.425l74.29,6.82l2.256-19.232l-0.178,0.137l0.345-1.559l0.124-1.054
			l0.093,0.077l3.903-17.624l10.689,8.524l-13.276,10.194l10.481,8.714l-13.401,12.792L698.713,505.113z M638.781,468.349
			l59.273,34.999l9.596-28.677L638.781,468.349z M711.397,454.106l-2.168,18.482l11.358-10.842L711.397,454.106z M715.217,436.362
			l-3.351,15.13l11.373-8.733L715.217,436.362z"/>
	</g>
	<g>
		<path style="fill:#E2761B;" d="M566.932,655.222l19.659,6.276l41.33,17.527L566.932,655.222z"/>
		<path style="fill:#E2761B;" d="M627.705,679.577l-60.989-23.803l0.395-1.116l19.685,6.285l0.025,0.011l41.33,17.527
			L627.705,679.577z M584.634,661.496l5.428,2.118l-3.678-1.56L584.634,661.496z"/>
	</g>
	<g>
		<path style="fill:#763D16;" d="M698.383,504.23l10.066-30.08l8.645,6.632L698.383,504.23z M698.383,504.23l-81.595-26.882
			l19.422-9.829L698.383,504.23z"/>
		<path style="fill:#763D16;" d="M696.761,507.213l0.872-2.606l-82.385-27.143l20.984-10.62l61.822,36.504l10.097-30.173
			l9.783,7.504l-18.662,23.387l4.135,2.442l-4.817-1.587L696.761,507.213z M618.329,477.232l75.031,24.72l-57.172-33.759
			L618.329,477.232z M708.747,475.126l-8.742,26.122l16.249-20.363L708.747,475.126z"/>
	</g>
	<g>
		<path style="fill:#763D16;" d="M655.632,375.266l-19.422,92.253l-19.422,9.829L655.632,375.266z"/>
		<path style="fill:#763D16;" d="M615.691,478.567l42.08-110.588l-21.04,99.94L615.691,478.567z M653.493,382.553l-35.607,93.576
			l17.803-9.01L653.493,382.553z"/>
	</g>
	<g>
		<path style="fill:#763D16;" d="M714.844,435.307l-78.634,32.212l19.422-92.253L714.844,435.307z"/>
		<path style="fill:#763D16;" d="M635.401,468.49l19.879-94.425l60.607,61.455L635.401,468.49z M655.984,376.466l-18.964,90.081
			l76.783-31.453L655.984,376.466z"/>
	</g>
	<g>
		<path style="fill:#763D16;" d="M655.632,375.266l82.068-9.474l-22.856,69.515L655.632,375.266z"/>
		<path style="fill:#763D16;" d="M715.104,436.414l-60.746-61.597l84.194-9.719L715.104,436.414z M656.906,375.715l57.679,58.486
			l22.264-67.715L656.906,375.715z"/>
	</g>
	<g>
		<path style="fill:#F6851B;" d="M698.383,504.23l-27.356,18.948l-54.239-45.83L698.383,504.23z"/>
		<path style="fill:#F6851B;" d="M670.991,523.924l-56.916-48.093l85.622,28.209L670.991,523.924z M619.502,478.865l51.561,43.568
			l26.006-18.012L619.502,478.865z"/>
	</g>
	<g>
		<path style="fill:#763D16;" d="M734.147,299.356l3.553,66.436l-82.068,9.474L734.147,299.356z"/>
		<path style="fill:#763D16;" d="M653.964,376.054l80.705-78.027l3.652,68.289L653.964,376.054z M733.625,300.684l-76.326,73.794
			l79.78-9.21L733.625,300.684z"/>
	</g>
	<g>
		<path style="fill:#E2761B;" d="M734.147,299.356L570.129,418.609l-2.132-80.884L734.147,299.356z"/>
		<path style="fill:#E2761B;" d="M569.567,419.75l-2.174-82.493l0.472-0.109l168.984-39.024L569.567,419.75z M568.602,338.193
			l2.089,79.275l160.756-116.881L568.602,338.193z"/>
	</g>
	<g>
		<path style="fill:#F6851B;" d="M446.02,328.014l121.978,9.711l2.132,80.884L446.02,328.014z"/>
		<path style="fill:#F6851B;" d="M570.753,419.798l-126.773-92.54l124.596,9.919L570.753,419.798z M448.06,328.771l121.445,88.65
			l-2.086-79.148L448.06,328.771z"/>
	</g>
	<g>
		<path style="fill:#763D16;" d="M616.788,477.348l-46.659-58.739l85.503-43.343L616.788,477.348z"/>
		<path style="fill:#763D16;" d="M616.972,478.531l-47.758-60.122l0.647-0.328l86.868-44.036L616.972,478.531z M571.044,418.809
			l45.561,57.356l37.929-99.679L571.044,418.809z"/>
	</g>
	<g>
		<path style="fill:#E4761B;" d="M616.788,477.348l54.239,45.83l-76.147,8.408L616.788,477.348z"/>
		<path style="fill:#E4761B;" d="M593.96,532.284l22.586-55.916l55.916,47.248L593.96,532.284z M617.031,478.328L595.8,530.889
			l73.792-8.148L617.031,478.328z"/>
	</g>
	<g>
		<path style="fill:#E4761B;" d="M594.88,531.587l-24.751-112.977l46.659,58.739L594.88,531.587z"/>
		<path style="fill:#E4761B;" d="M594.711,533.585l-25.707-117.344l48.463,61.009L594.711,533.585z M571.254,420.977l23.794,108.611
			l21.062-52.142L571.254,420.977z"/>
	</g>
	<g>
		<path style="fill:#763D16;" d="M655.632,375.266l-85.503,43.343l164.018-119.254L655.632,375.266z"/>
		<path style="fill:#763D16;" d="M563.788,422.488l176.849-128.582l-84.657,81.848l-0.08,0.04L563.788,422.488z M727.658,304.806
			L576.47,414.731l78.814-39.953L727.658,304.806z"/>
	</g>
	<g>
		<path style="fill:#C0AD9E;" d="M447.086,677.131l38.725,40.383l-52.699-47.962L447.086,677.131z"/>
		<path style="fill:#C0AD9E;" d="M485.412,717.952l-56.309-51.248l18.347,9.951l0.064,0.067l38.725,40.383L485.412,717.952z
			 M437.12,672.399l36.21,32.955l-26.608-27.747L437.12,672.399z"/>
	</g>
	<g>
		<path style="fill:#CD6116;" d="M627.92,679.026l18.356-69.752l36.356-5.211L627.92,679.026z"/>
		<path style="fill:#CD6116;" d="M626.549,681.908l19.254-73.165l0.389-0.056l37.747-5.41L626.549,681.908z M646.749,609.804
			l-17.458,66.339l52.035-71.295L646.749,609.804z"/>
	</g>
	<g>
		<path style="fill:#E2761B;" d="M290.054,482.796l67.028-70.463l-58.383,62.055L290.054,482.796z"/>
		<polygon style="fill:#E2761B;" points="290.467,483.22 289.625,482.388 356.654,411.925 357.514,412.739 299.122,474.803 
			299.112,474.812 		"/>
	</g>
	<g>
		<path style="fill:#F6851B;" d="M682.633,604.063l-36.356,5.211l24.751-86.095L682.633,604.063z M570.129,418.609l-65.252-2.132
			l-58.857-88.463L570.129,418.609z"/>
		<path style="fill:#F6851B;" d="M645.454,609.989l0.253-0.88l25.514-88.749l12.082,84.204L645.454,609.989z M670.833,525.996
			l-23.735,82.561l34.864-4.997L670.833,525.996z M572.03,419.264l-67.477-2.204l-60.864-91.48L572.03,419.264z M505.201,415.896
			l63.027,2.059l-119.877-87.506L505.201,415.896z"/>
	</g>
	<g>
		<path style="fill:#E4751F;" d="M671.027,523.178l-24.751,86.095l-2.013-42.041L671.027,523.178z"/>
		<path style="fill:#E4751F;" d="M645.856,612.878l-2.193-45.798l29.156-47.991L645.856,612.878z M644.863,567.385l1.833,38.284
			l22.539-78.4L644.863,567.385z"/>
	</g>
	<g>
		<path style="fill:#CD6116;" d="M594.88,531.587l76.147-8.408l-26.764,44.054L594.88,531.587z"/>
		<path style="fill:#CD6116;" d="M644.436,568.088l-51.15-36.921l78.871-8.709L644.436,568.088z M596.473,532.007l47.617,34.371
			l25.807-42.478L596.473,532.007z"/>
	</g>
	<g>
		<path style="fill:#F6851B;" d="M504.877,416.478l65.252,2.132l24.751,112.977L504.877,416.478z"/>
		<path style="fill:#F6851B;" d="M596.014,533.999L503.63,415.844l66.978,2.188l0.099,0.45L596.014,533.999z M506.124,417.111
			l87.621,112.063l-24.096-109.988L506.124,417.111z"/>
	</g>
	<g>
		<path style="fill:#E4761B;" d="M504.877,416.478L328.779,253.525l117.241,74.489L504.877,416.478z M445.901,701.882
			l-153.005,47.37l-30.554-116.648L445.901,701.882z"/>
		<path style="fill:#E4761B;" d="M292.481,750L261.48,631.644l186.245,70.293L292.481,750z M263.206,633.562l30.106,114.941
			l150.765-46.677L263.206,633.562z M508.124,420.289l-184.546-170.77l122.865,78.063l0.069,0.105L508.124,420.289z M333.98,257.531
			l167.65,155.135l-56.034-84.219L333.98,257.531z"/>
	</g>
	<g>
		<path style="fill:#763D16;" d="M312.792,511.928l57.791-45.357l48.436,11.25L312.792,511.928z"/>
		<path style="fill:#763D16;" d="M309.828,513.502l60.613-47.571l0.276,0.064l50.524,11.736L309.828,513.502z M370.726,467.212
			l-54.97,43.142l101.041-32.441L370.726,467.212z"/>
	</g>
	<g>
		<path style="fill:#763D16;" d="M419.019,477.822l-48.436-11.25l25.935-107.056L419.019,477.822z"/>
		<path style="fill:#763D16;" d="M419.77,478.604l-49.904-11.591l26.721-110.3L419.77,478.604z M371.299,466.13l46.968,10.909
			l-21.819-114.721L371.299,466.13z"/>
	</g>
	<g>
		<path style="fill:#763D16;" d="M298.699,474.387l71.884-7.816l-57.791,45.357L298.699,474.387z"/>
		<path style="fill:#763D16;" d="M312.522,512.893l-14.645-39.012l74.701-8.122L312.522,512.893z M299.522,474.894l13.54,36.07
			l55.527-43.579L299.522,474.894z"/>
	</g>
	<g>
		<path style="fill:#CD6116;" d="M644.263,567.232l-29.843-15.04l-19.54-20.606L644.263,567.232z"/>
		<path style="fill:#CD6116;" d="M650.659,571.119l-36.598-18.444l-23.963-25.269L650.659,571.119z M614.779,551.71l23.089,11.636
			l-38.206-27.578L614.779,551.71z"/>
	</g>
	<g>
		<path style="fill:#763D16;" d="M298.699,474.387l-5.092-26.882l76.976,19.066L298.699,474.387z"/>
		<path style="fill:#763D16;" d="M298.219,475.035l-5.366-28.327l81.112,20.091L298.219,475.035z M294.361,448.302l4.819,25.438
			l68.021-7.396L294.361,448.302z"/>
	</g>
	<g>
		<path style="fill:#233447;" d="M608.262,586.062l6.158-33.87l29.843,15.04L608.262,586.062z"/>
		<path style="fill:#233447;" d="M607.463,587.148l6.516-35.841l31.58,15.916L607.463,587.148z M614.861,553.078l-5.8,31.898
			l33.905-17.734L614.861,553.078z"/>
	</g>
	<g>
		<path style="fill:#F6851B;" d="M646.276,609.273l-38.014-23.211l36.001-18.83L646.276,609.273z"/>
		<path style="fill:#F6851B;" d="M646.921,610.361l-39.861-24.339l37.75-19.744L646.921,610.361z M609.463,586.102l36.168,22.084
			l-1.915-39.999L609.463,586.102z"/>
	</g>
	<g>
		<path style="fill:#763D16;" d="M370.583,466.571l-76.976-19.066l-6.277-22.619L370.583,466.571z M396.518,359.515l-25.935,107.056
			l-83.253-41.686L396.518,359.515z M396.518,359.515l108.359,56.962l-85.858,61.344L396.518,359.515z"/>
		<path style="fill:#763D16;" d="M418.61,478.842l-22.162-116.524L371.27,466.253l4.342,2.174l-4.593-1.138l-0.035,0.145
			l-0.606-0.304l-77.248-19.134l-6.299-22.699l-0.73-0.365l0.539-0.323l-0.236-0.85l0.902,0.451l108.554-64.991l-0.152-0.8
			l0.792,0.416l0.927-0.555l-0.224,0.925l108.801,57.195L418.61,478.842z M397.329,360.611l22.098,116.191l84.323-60.247
			L397.329,360.611z M288.561,424.84l81.622,40.869l25.427-104.96L288.561,424.84z M294.085,447.013l71.47,17.703l-77.297-38.704
			L294.085,447.013z"/>
	</g>
	<g>
		<path style="fill:#E4761B;" d="M419.019,477.822l85.858-61.344l38.251,116.885L419.019,477.822z M543.128,533.363l-118.662-2.487
			l-5.448-53.054L543.128,533.363z"/>
		<path style="fill:#E4761B;" d="M544.107,534.45l-1.111-0.497l-119.065-2.495l-5.466-53.235l-0.63-0.282l0.56-0.4l-0.07-0.677
			l0.626,0.28l86.238-61.616l0.251,0.766l38.17,116.636l2.428,1.087l-2.087-0.044L544.107,534.45z M425.002,530.295l115.217,2.415
			l-120.506-53.929L425.002,530.295z M420.203,477.703l121.946,54.573l-37.584-114.848L420.203,477.703z"/>
	</g>
	<g>
		<path style="fill:#F6851B;" d="M312.792,511.928l106.227-34.106l5.448,53.054L312.792,511.928z M594.88,531.587l-51.752,1.776
			l-38.251-116.885L594.88,531.587z"/>
		<path style="fill:#F6851B;" d="M542.704,533.97l-39.439-120.516l92.799,118.684L542.704,533.97z M506.489,419.501l37.063,113.255
			l50.144-1.721L506.489,419.501z M425.135,531.59l-114.834-19.484l109.233-35.071L425.135,531.59z M315.283,511.75l108.515,18.412
			l-5.293-51.553L315.283,511.75z"/>
	</g>
	<g>
		<path style="fill:#CD6116;" d="M614.42,552.193l-6.158,33.87l-13.382-54.475L614.42,552.193z"/>
		<path style="fill:#CD6116;" d="M608.348,588.896l-14.577-59.339l21.285,22.446L608.348,588.896z M595.988,533.616l12.187,49.612
			l5.608-30.846L595.988,533.616z"/>
	</g>
	<g>
		<path style="fill:#763D16;" d="M328.779,253.525l176.098,162.953l-108.359-56.962L328.779,253.525z"/>
		<path style="fill:#763D16;" d="M508.569,419.088l-112.465-59.121l-0.084-0.132l-70.222-109.875L508.569,419.088z M396.933,359.064
			l104.252,54.804L331.761,257.091L396.933,359.064z"/>
	</g>
	<g>
		<path style="fill:#E4761B;" d="M262.343,632.603l148.505-6.158l35.054,75.437L262.343,632.603z"/>
		<path style="fill:#E4761B;" d="M447.05,702.948l-187.633-70.816l151.801-6.295L447.05,702.948z M265.269,633.074l179.484,67.741
			l-34.276-73.762L265.269,633.074z"/>
	</g>
	<g>
		<path style="fill:#CD6116;" d="M445.901,701.882l-35.054-75.437l72.95-3.553L445.901,701.882z"/>
		<path style="fill:#CD6116;" d="M445.893,703.268l-35.953-77.372l0.879-0.043l73.942-3.601L445.893,703.268z M411.755,626.993
			l34.154,73.501l36.924-76.963L411.755,626.993z"/>
	</g>
	<g>
		<path style="fill:#F6851B;" d="M608.262,586.062l38.014,23.211l20.961,49.383L608.262,586.062z M424.466,530.876L262.343,632.603
			l50.449-120.675L424.466,530.876z M410.848,626.445l-148.505,6.158l162.124-101.727L410.848,626.445z M594.88,531.587
			l9.711,35.291l-46.896,2.724L594.88,531.587z M557.694,569.601l-14.566-36.238l51.752-1.776L557.694,569.601z"/>
		<path style="fill:#F6851B;" d="M669.419,662.281l-63.789-78.52l41.117,25.106L669.419,662.281z M610.894,588.363l54.162,66.669
			l-19.25-45.352L610.894,588.363z M261.077,634.096l0.361-0.863l-1.299,0.054l1.73-1.086l50.558-120.936l111.916,18.989l0.89-0.558
			l-0.099,0.693l0.963,0.163l-1.083,0.68l-13.65,95.785l-0.492,0.02l-148.348,6.152L261.077,634.096z M423.7,532.056
			l-159.153,99.863l145.784-6.045L423.7,532.056z M313.157,512.591L263.609,631.11L422.836,531.2L313.157,512.591z M557.483,570.664
			l-0.18-0.447l-1.103,0.064l0.8-0.818L542.264,532.8l52.359-1.797l0.555-0.567l0.149,0.543l1.01-0.035l-0.796,0.813l9.815,35.668
			l-47.398,2.753L557.483,570.664z M594.582,532.738l-35.395,36.184l44.638-2.593L594.582,532.738z M543.993,533.926l13.913,34.613
			l35.518-36.309L543.993,533.926z"/>
	</g>
	<g>
		<path style="fill:#C0AD9E;" d="M485.811,717.514l-39.909-15.632l138.794,23.33L485.811,717.514z"/>
		<path style="fill:#C0AD9E;" d="M597.93,726.836l-112.253-8.739l-0.082-0.032l-45.222-17.713L597.93,726.836z M485.944,716.93
			l85.516,6.657l-120.03-20.176L485.944,716.93z"/>
	</g>
	<g>
		<path style="fill:#763D16;" d="M312.792,511.928l-22.738-29.133l8.645-8.408L312.792,511.928z"/>
		<path style="fill:#763D16;" d="M314.706,515.344l-25.446-32.602l9.675-9.41L314.706,515.344z M290.848,482.85l20.03,25.663
			l-12.414-33.07L290.848,482.85z"/>
	</g>
	<g>
		<path style="fill:#D7C1B3;" d="M600.446,707.921l-15.75,17.29l-138.794-23.33L600.446,707.921z"/>
		<path style="fill:#D7C1B3;" d="M584.915,725.849l-0.318-0.053l-147.943-24.868l165.087,6.452L584.915,725.849z M455.149,702.836
			l129.326,21.738l14.676-16.111L455.149,702.836z"/>
	</g>
	<g>
		<path style="fill:#E4761B;" d="M607.907,665.525l-162.005,36.356l37.896-78.989L607.907,665.525z"/>
		<path style="fill:#E4761B;" d="M444.839,702.727l38.652-80.566l0.498,0.171l126.088,43.313L444.839,702.727z M484.103,623.623
			l-37.14,77.413l158.772-35.631L484.103,623.623z"/>
	</g>
	<g>
		<path style="fill:#D7C1B3;" d="M445.901,701.882l162.005-36.356l-7.461,42.396L445.901,701.882z"/>
		<path style="fill:#D7C1B3;" d="M600.939,708.533l-159.59-6.237l167.294-37.543L600.939,708.533z M450.453,701.467l149.499,5.842
			l7.217-41.012L450.453,701.467z"/>
	</g>
	<g>
		<path style="fill:#763D16;" d="M287.331,424.886l-5.329-91.069l114.517,25.698L287.331,424.886z M298.699,474.387L282.949,458.4
			l10.658-10.895L298.699,474.387z"/>
		<path style="fill:#763D16;" d="M299.643,476.189l-17.524-17.788l11.858-12.122L299.643,476.189z M283.779,458.399l13.977,14.187
			l-4.519-23.855L283.779,458.399z M286.796,425.896l-5.432-92.828l116.729,26.195L286.796,425.896z M282.638,334.567l5.226,89.309
			l107.078-64.107L282.638,334.567z"/>
	</g>
	<g>
		<path style="fill:#CD6116;" d="M516.601,556.811l26.527-23.448l-3.79,57.318L516.601,556.811z"/>
		<path style="fill:#CD6116;" d="M539.815,592.452l-23.995-35.742l27.994-24.744L539.815,592.452z M517.381,556.911l21.481,31.997
			l3.58-54.149L517.381,556.911z"/>
	</g>
	<g>
		<path style="fill:#CD6116;" d="M543.128,533.363l-26.527,23.448l-38.607,20.014L543.128,533.363z"/>
		<path style="fill:#CD6116;" d="M468.733,582.293l81.329-54.268l-33.123,29.278l-0.065,0.034L468.733,582.293z M536.195,538.701
			l-48.938,32.655l29.007-15.037L536.195,538.701z"/>
	</g>
	<g>
		<path style="fill:#F6851B;" d="M667.237,658.656l-7.224-5.329l-51.752-67.265L667.237,658.656z"/>
		<path style="fill:#F6851B;" d="M670.633,661.897l-11.038-8.143l-0.051-0.066l-51.752-67.265l0.929-0.734L670.633,661.897z
			 M660.432,652.9l3.409,2.515l-27.836-34.264L660.432,652.9z"/>
	</g>
	<g>
		<path style="fill:#CD6116;" d="M477.995,576.825l-53.528-45.949l118.662,2.487L477.995,576.825z"/>
		<path style="fill:#CD6116;" d="M477.95,577.567l-55.122-47.317l1.651,0.035l120.544,2.526L477.95,577.567z M426.106,531.503
			l51.934,44.58l63.194-42.168L426.106,531.503z"/>
	</g>
	<g>
		<path style="fill:#E4751F;" d="M539.339,590.681l3.79-57.318l14.566,36.238L539.339,590.681z"/>
		<path style="fill:#E4751F;" d="M538.632,592.394l4.077-61.662l15.67,38.985L538.632,592.394z M543.548,535.994l-3.502,52.973
			l16.965-19.482L543.548,535.994z"/>
	</g>
	<g>
		<path style="fill:#763D16;" d="M277.738,433.886l9.592-9l6.276,22.619L277.738,433.886z"/>
		<path style="fill:#763D16;" d="M294.698,449.221l-17.846-15.316l10.788-10.122L294.698,449.221z M278.624,433.867l13.892,11.922
			l-5.494-19.801L278.624,433.867z"/>
	</g>
	<g>
		<path style="fill:#233447;" d="M539.339,590.681l-61.344-13.856l38.607-20.014L539.339,590.681z"/>
		<path style="fill:#233447;" d="M540.66,591.586l-64.377-14.541l40.515-21.003L540.66,591.586z M479.706,576.604l58.311,13.171
			l-21.613-32.195L479.706,576.604z"/>
	</g>
	<g>
		<path style="fill:#763D16;" d="M396.518,359.515l-114.517-25.698l46.778-80.292L396.518,359.515z"/>
		<path style="fill:#763D16;" d="M397.791,360.408l-116.709-26.19l47.673-81.829L397.791,360.408z M282.92,333.416l112.325,25.206
			l-66.443-103.962L282.92,333.416z"/>
	</g>
	<g>
		<path style="fill:#C0AD9E;" d="M584.695,725.211l6.513,17.764l-105.398-25.461L584.695,725.211z"/>
		<path style="fill:#C0AD9E;" d="M592.146,743.81l-113.683-27.463l106.658,8.303L592.146,743.81z M493.159,718.679l97.113,23.46
			l-6.001-16.367L493.159,718.679z"/>
	</g>
	<g>
		<path style="fill:#F6851B;" d="M483.797,622.892l-5.803-46.067l61.344,13.856L483.797,622.892z"/>
		<path style="fill:#F6851B;" d="M483.321,623.853l-6.02-47.791l63.64,14.374L483.321,623.853z M478.687,577.588l5.586,44.343
			l53.463-31.006L478.687,577.588z"/>
	</g>
	<g>
		<path style="fill:#E4751F;" d="M424.466,530.876l53.528,45.949l5.803,46.067L424.466,530.876z"/>
		<path style="fill:#E4751F;" d="M484.71,625.401l-62.948-97.627l56.792,48.751L484.71,625.401z M427.171,533.978l55.713,86.406
			l-5.449-43.258L427.171,533.978z"/>
	</g>
	<g>
		<path style="fill:#F6851B;" d="M557.694,569.601l46.896-2.724l55.423,86.45L557.694,569.601z M424.466,530.876l59.331,92.016
			l-72.95,3.553L424.466,530.876z"/>
		<path style="fill:#F6851B;" d="M662.525,656.147l-106.38-87.049l48.758-2.832l0.187,0.292L662.525,656.147z M559.244,570.104
			l98.258,80.403l-53.223-83.019L559.244,570.104z M410.16,627.071l13.944-97.85l60.747,94.212L410.16,627.071z M424.829,532.531
			l-13.294,93.288l71.209-3.468L424.829,532.531z"/>
	</g>
	<g>
		<path style="fill:#E4751F;" d="M557.694,569.601l58.265,88.7l-76.621-67.621L557.694,569.601z"/>
		<path style="fill:#E4751F;" d="M618.88,661.668l-80.374-70.933l19.255-22.112l0.429,0.653L618.88,661.668z M540.171,590.626
			l72.868,64.309l-55.411-84.356L540.171,590.626z"/>
	</g>
	<g>
		<path style="fill:#F6851B;" d="M539.339,590.681l76.621,67.621l-8.053,7.224L539.339,590.681z"/>
		<path style="fill:#F6851B;" d="M607.866,666.357l-76.5-83.502l85.484,75.443L607.866,666.357z M547.311,598.506l60.636,66.187
			l7.121-6.388L547.311,598.506z"/>
	</g>
	<g>
		<path style="fill:#F6851B;" d="M607.907,665.525l-124.109-42.633l55.541-32.212L607.907,665.525z M660.013,653.327l-44.054,4.974
			l-58.265-88.7L660.013,653.327z"/>
		<path style="fill:#F6851B;" d="M609.915,666.841l-127.537-43.81l57.075-33.101l0.322,0.351L609.915,666.841z M485.216,622.754
			l120.681,41.455l-66.674-72.777L485.216,622.754z M615.664,658.93l-60.588-92.237l106.399,87.065L615.664,658.93z
			 M560.313,572.509l55.942,85.163l42.297-4.776L560.313,572.509z"/>
	</g>
	<g>
		<path style="fill:#C0AD9E;" d="M671.619,695.013l-18.948,38.014l-61.463,9.948L671.619,695.013z M591.209,742.975l-6.513-17.764
			l15.75-17.29L591.209,742.975z"/>
		<path style="fill:#C0AD9E;" d="M591.301,744.947l-0.48-1.31l-2.579,0.417l2.242-1.337l-6.468-17.64l17.618-19.34l-9.482,35.985
			l80.899-48.254l-19.984,40.093l-0.3,0.049l-61.083,9.886L591.301,744.947z M670.188,696.556l-76.013,45.339l58.102-9.404
			L670.188,696.556z M585.375,725.345l5.741,15.658l8.142-30.899L585.375,725.345z"/>
	</g>
	<g>
		<path style="fill:#C0AD9E;" d="M600.446,707.921l11.606-4.619l-20.843,39.672L600.446,707.921z M591.209,742.975l20.843-39.672
			l59.568-8.29L591.209,742.975z"/>
		<path style="fill:#C0AD9E;" d="M589.307,747.868l0.959-3.641l-0.559,0.334l0.946-1.801l9.296-35.277l11.68-4.648l0.04-0.075
			l0.231-0.032l1.421-0.565l-0.208,0.397l61.322-8.534l-82.779,49.375L589.307,747.868z M612.434,703.847L592.71,741.39
			l76.094-45.387L612.434,703.847z M600.942,708.361l-7.832,29.721l17.672-33.637L600.942,708.361z"/>
	</g>
	<g>
		<path style="fill:#161616;" d="M660.013,653.327l14.566,8.882l-44.291,5.329L660.013,653.327z"/>
		<path style="fill:#161616;" d="M626.787,668.556l33.26-15.902l16.299,9.938L626.787,668.556z M659.979,654l-26.189,12.521
			l39.023-4.695L659.979,654z"/>
	</g>
	<g>
		<path style="fill:#161616;" d="M630.289,667.538l-14.329-9.237l44.054-4.974L630.289,667.538z M625.197,674.525l53.883-6.513
			l-7.461,27.001L625.197,674.525z"/>
		<path style="fill:#161616;" d="M672.007,695.831l-49.023-21.635l56.901-6.878L672.007,695.831z M627.409,674.855l43.822,19.34
			l7.043-25.488L627.409,674.855z M630.246,668.215l-16.003-10.316l49.2-5.555L630.246,668.215z M617.676,658.703l12.656,8.158
			l26.253-12.551L617.676,658.703z"/>
	</g>
	<g>
		<path style="fill:#161616;" d="M671.619,695.013l-59.568,8.29l13.145-28.777L671.619,695.013z M612.051,703.303l-11.606,4.619
			l7.461-42.396L612.051,703.303z M607.907,665.525l8.053-7.224l14.329,9.237L607.907,665.525z M674.58,662.209l4.5,5.803
			l-53.883,6.513L674.58,662.209z"/>
		<path style="fill:#161616;" d="M599.679,708.864l7.533-42.807l-0.713-0.064l0.861-0.772l0.684-3.885l0.327,2.979l7.531-6.756
			l16.73,10.785l-24.057-2.164l3.832,34.922l11.814-25.862l-8.411,1.017l8.969-2.237l0.124-0.272l0.349,0.154l49.561-12.361
			l5.377,6.933l-52.779,6.38l46.355,20.458l-61.56,8.567L599.679,708.864z M607.771,669.714l-6.558,37.264l10.201-4.06
			L607.771,669.714z M625.492,675.303l-12.454,27.264l56.436-7.854L625.492,675.303z M674.349,662.877l-39.763,9.917l43.386-5.244
			L674.349,662.877z M609.315,665.057l18.632,1.676l-11.928-7.689L609.315,665.057z"/>
	</g>
	<g>
		<path style="fill:#161616;" d="M625.197,674.525l5.092-6.987l44.291-5.329L625.197,674.525z M607.907,665.525l17.29,9
			l-13.145,28.777L607.907,665.525z"/>
		<path style="fill:#161616;" d="M611.697,705.503l-4.5-41.015l17.821,9.277l4.944-6.784l0.256-0.031l53.71-6.463l-58.311,14.543
			L611.697,705.503z M608.616,666.562l3.79,34.54l11.742-25.704l-0.39,0.097l0.555-0.762L608.616,666.562z M630.616,668.095
			l-3.98,5.461l38.596-9.626L630.616,668.095z"/>
	</g>
	<g>
		<path style="fill:#161616;" d="M630.289,667.538l-5.092,6.987l-17.29-9L630.289,667.538z"/>
		<path style="fill:#161616;" d="M625.375,675.286l-20.399-10.619l26.407,2.375L625.375,675.286z M610.837,666.383l14.181,7.382
			l4.177-5.731L610.837,666.383z"/>
	</g>
</g>
</svg>
