<svg id="Layer_1" data-name="Layer 1" xmlns="http://www.w3.org/2000/svg" viewBox="0 0 638 199.99"><defs><style>.cls-1{fill:#0f0f76;}.cls-1,.cls-2{fill-rule:evenodd;}.cls-2{fill:#01a0c6;}</style></defs><title>Paytm Logo Vector</title><path class="cls-1" d="M181.6,439.08c0-4.45,3-6.67,6.68-6.67h65.1c20,2.27,33.93,12.44,35.29,39.18v36.17a49.92,49.92,0,0,1-1.86,15.11c-5.18,17.41-17.62,26.06-36.22,27.27H222.67v44.28c0,3.32-2.79,5-6.17,5H187.18c-3.57,0-6.19-2-6.18-6l.6-154.34ZM223,473.44H240.3a7.13,7.13,0,0,1,7.09,7.11v20.9a7.13,7.13,0,0,1-7.09,7.11H223V473.44Z" transform="translate(-181 -400)"/><path class="cls-1" d="M320.76,432.6h45.5c26.63,1.56,41.05,15.54,40.67,44.54V584.52c0,8.33-8.4,14.63-15.6,14.63H331.69c-18.1,0-30.05-14.1-33-27.93-2.85-13.28-.73-29.35-.73-42.91,0-20.93,13.88-41.69,37-41.69h24.28c7.07-.38,6.75-15.81,0-15.27H321.25c-3.84,0-6.54-2-6.91-6V437.26c0-3.59,3-4.66,6.42-4.66Zm25.08,92.84h13.89a6,6,0,0,1,5.95,6v24.18a6,6,0,0,1-5.95,6H345.84a6,6,0,0,1-5.94-6V531.41a6,6,0,0,1,5.94-6Z" transform="translate(-181 -400)"/><path class="cls-1" d="M420.89,440.17V508c1.65,21.27,20.74,37.19,41.51,37.19h19.21c7.94,0,7.46,13.35,0,13.35H440.05c-4.5,0-6.14,2.36-6.14,6.33v29.86a5.34,5.34,0,0,0,5.61,5.27H478c32.12,0,50.41-15.41,50.4-49.94V437.54c0-3.67-2.33-5.1-4.56-5.1H491.59c-3,0-4.72,3.24-4.72,5.61v61.66c0,2.65-1.48,4.2-3.86,4.2H467.74c-3.51,0-5.43-1.9-5.43-5.26V439.11c0-3.94-1.59-6.84-5.95-6.84h-31c-3.54,0-4.43,3.5-4.43,7.9Z" transform="translate(-181 -400)"/><path class="cls-2" d="M544.65,468.05V438.72a5.75,5.75,0,0,1,5.72-5.73h7.06c18.18-3.79,22.51-14.45,33.63-26.44,6.84-7.41,12.84-9.35,17.26-1.51V433H625a5.74,5.74,0,0,1,5.73,5.73v29.33a5.76,5.76,0,0,1-5.73,5.73H608.31V594a5.73,5.73,0,0,1-5.72,5.72H573.25a5.72,5.72,0,0,1-5.71-5.72V473.78H550.37a5.75,5.75,0,0,1-5.72-5.73Z" transform="translate(-181 -400)"/><path class="cls-2" d="M752.42,592a7.17,7.17,0,0,1-7.16,7.11H717.79a7.16,7.16,0,0,1-7.17-7.11V481.74c.21-11.93-23.81-13.78-23.81,0V592a7.16,7.16,0,0,1-7.16,7.11H652.19A7.17,7.17,0,0,1,645,592V439.11a7.18,7.18,0,0,1,7.18-7.14h27.46a7.16,7.16,0,0,1,7.16,7.14v2.1c16.07-15.36,43.89-12.93,58.7,3,27.87-32,75.63-3.48,73.42,31.58,0,38.76-.35,77.14-.35,116.22a7.16,7.16,0,0,1-7.15,7.11H784a7.16,7.16,0,0,1-7.17-7.11V482.46c-1.56-15.3-24.67-11.72-24.64,0,0,36.42.28,72.84.28,109.58Z" transform="translate(-181 -400)"/></svg>